<?xml version="1.0" encoding="utf-8"?>
<!-- Generator: Adobe Illustrator 19.2.1, SVG Export Plug-In . SVG Version: 6.00 Build 0)  -->
<svg version="1.1" id="layer" xmlns="http://www.w3.org/2000/svg" xmlns:xlink="http://www.w3.org/1999/xlink" x="0px" y="0px"
	 viewBox="0 0 652 652" style="enable-background:new 0 0 652 652;" xml:space="preserve">
<style type="text/css">
	.st0{fill:#A1CE5A;}
	.st1{fill:#C4D82E;}
	.st2{fill:#2CB34A;}
	.st3{fill:#015DAB;}
	.st4{fill:#288DCC;}
	.st5{fill:#70ACDE;}
</style>
<path class="st0" d="M62.2,288.9c-4,0-7.4,3.3-7.4,7.4c0,4,3.3,7.4,7.4,7.4s7.4-3.3,7.4-7.4C69.6,292.1,66.3,288.9,62.2,288.9z
	 M44.5,314.1c4,0,7.4,3.3,7.4,7.4s-3.3,7.4-7.4,7.4s-7.4-3.3-7.4-7.4C37.1,317.4,40.3,314.1,44.5,314.1z M62.2,354
	c-4,0-7.4-3.3-7.4-7.4c0-4,3.3-7.4,7.4-7.4s7.4,3.3,7.4,7.4C69.6,350.8,66.3,354,62.2,354z"/>
<path class="st1" d="M44.5,299c-2.7,0-4.9,2.2-4.9,4.9c0,2.7,2.2,4.9,4.9,4.9c2.7,0,4.9-2.2,4.9-4.9C49.3,301.1,47.1,299,44.5,299z
	 M25.8,316.5c2.7,0,4.9,2.2,4.9,4.9s-2.2,4.9-4.9,4.9c-2.8,0-4.9-2.2-4.9-4.9S23.2,316.5,25.8,316.5z M44.5,344
	c-2.7,0-4.9-2.2-4.9-4.9s2.2-4.9,4.9-4.9c2.7,0,4.9,2.2,4.9,4.9C49.3,341.8,47.1,344,44.5,344z"/>
<path class="st2" d="M71.5,308.1c7.4,0,13.3,6,13.3,13.3c0,7.4-6,13.3-13.3,13.3s-13.3-6-13.3-13.3
	C58.2,314.1,64.1,308.1,71.5,308.1z M87.2,272.8c7.4,0,13.3,6,13.3,13.3c0,7.4-6,13.3-13.3,13.3c-7.4,0-13.3-6-13.3-13.3
	C73.8,278.8,79.8,272.8,87.2,272.8z M87.2,370.1c7.4,0,13.3-6,13.3-13.3c0-7.4-6-13.3-13.3-13.3c-7.4,0-13.3,6-13.3,13.3
	C73.8,364.1,79.8,370.1,87.2,370.1z"/>
<path class="st3" d="M170.9,308.1c7.4,0,13.3,6,13.3,13.3c0,7.4-6,13.3-13.3,13.3c-7.4,0-13.3-6-13.3-13.3
	C157.6,314.1,163.6,308.1,170.9,308.1z M142,356.8c0-7.4,6-13.3,13.3-13.3c7.4,0,13.3,6,13.3,13.3c0,7.4-6,13.3-13.3,13.3
	C148,370.1,142,364.1,142,356.8z M142,286.2c0,7.4,6,13.3,13.3,13.3c7.4,0,13.3-6,13.3-13.3c0-7.4-6-13.3-13.3-13.3
	C148,272.8,142,278.8,142,286.2z"/>
<path class="st4" d="M134.2,269.8c0,7.4-6,13.3-13.3,13.3c-7.4,0-13.3-6-13.3-13.3c0-7.4,6-13.3,13.3-13.3
	C128.2,256.3,134.2,262.3,134.2,269.8z M143.8,314.1c4,0,7.4,3.3,7.4,7.4s-3.3,7.4-7.4,7.4s-7.4-3.3-7.4-7.4
	C136.6,317.4,139.8,314.1,143.8,314.1z M134.2,373.2c0-7.4-6-13.3-13.3-13.3c-7.4,0-13.3,6-13.3,13.3s6,13.3,13.3,13.3
	C128.2,386.6,134.2,380.6,134.2,373.2z M130.3,354c-4,0-7.4-3.3-7.4-7.4c0-4,3.3-7.4,7.4-7.4c4,0,7.4,3.3,7.4,7.4
	C137.7,350.8,134.4,354,130.3,354z M130.3,288.9c-4,0-7.4,3.3-7.4,7.4c0,4,3.3,7.4,7.4,7.4c4,0,7.4-3.3,7.4-7.4
	C137.7,292.2,134.4,288.9,130.3,288.9z"/>
<path class="st5" d="M127.3,316.5c2.7,0,4.9,2.2,4.9,4.9s-2.2,4.9-4.9,4.9c-2.8,0-4.9-2.2-4.9-4.9
	C122.4,318.7,124.5,316.5,127.3,316.5z M114.6,346c-2.8,0-4.9-2.2-4.9-4.9s2.2-4.9,4.9-4.9c2.7,0,4.9,2.2,4.9,4.9
	C119.6,343.8,117.4,346,114.6,346z M114.6,297c-2.8,0-4.9,2.2-4.9,4.9s2.2,4.9,4.9,4.9c2.7,0,4.9-2.2,4.9-4.9
	C119.6,299.1,117.4,297,114.6,297z"/>
<path class="st6" d="M235.6,294.6L222,326.2h19L235.6,294.6z M245.5,354.3l-2.7-15.5h-25.8l-6.7,15.5h-15.7l34-74.8h19.1l14.4,74.8
	H245.5z"/>
<polygon class="st6" points="284.7,354.3 268.9,354.3 278.9,277.2 294.7,277.2 "/>
<polygon class="st6" points="312.6,354.3 296.8,354.3 306.8,277.2 322.7,277.2 "/>
<path class="st6" d="M354.8,308.1c-4.1,0-11.6,3-13.2,15.4c2.7-0.1,9.1-0.9,12.5-1.9c3.4-1.1,7.4-3.2,7.4-7.6
	C361.4,310.4,358.9,308.1,354.8,308.1z M364.2,329.4c-6.2,3-15,4.5-23,4.7c0,4.9,3.2,9.5,10.8,9.5c7.6,0,14.4-4.7,15.7-6l5.5,9.3
	c-4.8,5-13.3,8.7-24.3,8.7c-10.8,0-23.4-5.8-23.4-25.2c0-19.3,13.5-33.1,29.8-33.1c14.9,0,20.8,7.7,20.8,16.2
	C376.1,321.9,370.4,326.4,364.2,329.4z M419.1,313.8c0,0-2.2-1.1-5.5-1.1c-3.2,0-5.7,1.2-8.1,3.5c-2.4,2.4-4,5.3-5.6,9.3l-3.7,28.9
	h-15.8l7.3-55.7h14.5v8.7c2.9-5.9,8.3-10,14.1-10c4.9,0,6.4,1.7,6.4,1.7L419.1,313.8z M452,309.7c-9.3,0-14,9.7-14,18.3
	c0,7.4,3.5,11.8,9.3,11.8c9.4,0,13.9-9.7,13.9-18.3C461.1,314.1,457.4,309.7,452,309.7z M474.1,344.8c-1,8.1-2.6,15.3-8.3,21.4
	c-5.7,6-13.7,8.6-23.6,8.6c-9.6,0-19.2-4.3-23.1-7.6l6.4-10.6c4,2.8,10.3,5.8,16.7,5.8c5.5,0,9-1.5,11.4-4.1
	c2.3-2.7,3.4-5.9,4.2-11.3l0.6-3.2c-1.2,1.7-6.2,8.6-16.4,8.6c-10.2,0-20.2-6.1-20.2-22.8c0-16.6,10.8-32.3,26.9-32.3
	c11.5,0,14.5,8.3,14.5,8.3l2.1-7h14.6L474.1,344.8z M515.7,309.7c-8.2,0-13.8,9.5-13.8,20.5c0,7.8,3.4,12.8,9.3,12.8
	c8.2,0,13.8-9.5,13.8-20.5C524.9,314.8,521.5,309.7,515.7,309.7z M536.6,354.3H522v-7.6c0,0-5.2,8.9-16.5,8.9
	c-11.8,0-19.6-8.5-19.6-24.4c0-17.5,10.5-33.9,27.1-33.9c11.2,0,14.2,8.6,14.2,8.6l2-7.4h14.6L536.6,354.3z"/>
<path class="st6" d="M603.3,321.9l-4.1,32.4h-15.8l4.3-32.7c0.1-1,0.3-1.9,0.3-2.7c0-5.1-2.4-7.8-7.2-7.8c-5.6,0-9.7,5.1-11.7,9.9
	l-4.3,33.3H549l7.3-55.7h14.5v7.6c2.4-3.3,7.6-8.9,17.8-8.9c10.1,0,15.5,6.2,15.5,15C604,315.5,603.7,318.9,603.3,321.9z"/>
<path class="st6" d="M610.9,349.4h-1.7v-0.9h4.5v0.9h-1.7v4.9h-1.2L610.9,349.4L610.9,349.4z M614.5,348.5h1.8l1.4,4.4l0,0l1.4-4.4
	h1.8v5.8h-1.1v-4.8l0,0l-1.6,4.8h-1.1l-1.6-4.8l0,0v4.8h-1.1L614.5,348.5L614.5,348.5z"/>
</svg>
